# xmcd
#
# Track frame offsets:
#	150
#	16863
#	38252
#	55342
#	71333
#	88291
#	104048
#	119061
#	130382
#
# Disc length: 1971 seconds
#
# Revision: 1
# Processed by: cddbd v1.5.2PL0 Copyright (c) Steve Scherf et al.
# Submitted via: audiograbber 1.83.01
#
DISCID=7b07b109
DTITLE=Ozzy Ostermann - Black Cow From Hell
DYEAR=2014
DGENRE=Acoustic
TTITLE0=Happy Black Cow (From Hell)
TTITLE1=Oh Baby
TTITLE2=How High The Moon
TTITLE3=Lassie In The Sky
TTITLE4=Bunga Bunga
TTITLE5=Long Way From Home
TTITLE6=Good Fellas
TTITLE7=Damned Deaf Chicken
TTITLE8=CBT Blues
EXTD=
EXTT0=
EXTT1=
EXTT2=
EXTT3=
EXTT4=
EXTT5=
EXTT6=
EXTT7=
EXTT8=
PLAYORDER=
